PathFileType	4	(X/Y/Z)	/Users/itak/Documents/Research/Walk-IL/dataset/trc/00545_00009.trc
DataRate	CameraRate	NumFrames	NumMarkers	Units	OrigDataRate	OrigDataStartFrame	OrigNumFrames
100.000000	100.000000	4	54	mm	100.000000	73	587
Frame#	Time	RPSI			LPSI			L3			STRN			T10			C7			CLAV			RBAK			LBAK			LSHO			LUPA			LAEL			LAOL			LWTS			LWPS			LFRA			LHPS			LHTS			RSHO			RUPA			RAEL			RAOL			RWTS			RWPS			RFRA			RIFD			RHTS			RHPS			RBHD			LFHD			RFHD			LBHD			LHIP			RHIP			RASI			LASI			LKNE			LTHI			LANK			LTIP			LTOE			LMT1			LMT5			LHEE			RKNE			RTHI			RANK			RTIP			RTOE			RMT1			RMT5			RHEE			LIFD			*53			
		X1	Y1	Z1	X2	Y2	Z2	X3	Y3	Z3	X4	Y4	Z4	X5	Y5	Z5	X6	Y6	Z6	X7	Y7	Z7	X8	Y8	Z8	X9	Y9	Z9	X10	Y10	Z10	X11	Y11	Z11	X12	Y12	Z12	X13	Y13	Z13	X14	Y14	Z14	X15	Y15	Z15	X16	Y16	Z16	X17	Y17	Z17	X18	Y18	Z18	X19	Y19	Z19	X20	Y20	Z20	X21	Y21	Z21	X22	Y22	Z22	X23	Y23	Z23	X24	Y24	Z24	X25	Y25	Z25	X26	Y26	Z26	X27	Y27	Z27	X28	Y28	Z28	X29	Y29	Z29	X30	Y30	Z30	X31	Y31	Z31	X32	Y32	Z32	X33	Y33	Z33	X34	Y34	Z34	X35	Y35	Z35	X36	Y36	Z36	X37	Y37	Z37	X38	Y38	Z38	X39	Y39	Z39	X40	Y40	Z40	X41	Y41	Z41	X42	Y42	Z42	X43	Y43	Z43	X44	Y44	Z44	X45	Y45	Z45	X46	Y46	Z46	X47	Y47	Z47	X48	Y48	Z48	X49	Y49	Z49	X50	Y50	Z50	X51	Y51	Z51	X52	Y52	Z52	X53	Y53	Z53	X54	Y54	Z54	

74	0.73	-952.7520141601562	1018.552062988281	201.2143859863281	-939.4824829101562	1020.68603515625	68.23374176025391	-941.6250610351562	1103.8701171875	130.3558349609375	-719.3524169921875	1297.780883789062	139.0865631103516	-958.9119262695312	1229.26904296875	129.6328582763672	-921.0654907226562	1504.144287109375	145.1065216064453	-742.6260986328125	1408.249755859375	138.8873901367188	-990.2467651367188	1377.096313476562	227.7070922851562	-950.2822265625	1450.086303710938	53.46857833862305	-852.2457885742188	1478.363037109375	-25.26282691955566	-858.1098022460938	1351.9755859375	-106.4259796142578	-831.1258544921875	1129.053955078125	-123.179313659668	-918.8768920898438	1119.75537109375	-73.60870361328125	-733.0840454101562	889.1179809570312	-70.17331695556641	-775.432861328125	863.914306640625	-142.1065673828125	-806.0533447265625	1043.191284179688	-127.8881607055664	-764.9122314453125	805.0289916992188	-133.1912689208984	-711.6262817382812	813.200439453125	-90.73612976074219	-864.9715576171875	1467.742065429688	301.3639221191406	-885.43701171875	1402.81689453125	368.9157104492188	-886.4866943359375	1111.320922851562	409.6707458496094	-940.26904296875	1094.437377929688	381.4211120605469	-754.1654052734375	890.124755859375	367.6130065917969	-799.0527954101562	869.588134765625	434.094970703125	-876.4939575195312	1056.141723632812	417.9035949707031	-742.621337890625	717.3780517578125	371.7911682128906	-725.526123046875	799.43701171875	382.1016540527344	-781.2339477539062	794.7798461914062	430.7310791015625	-861.1380615234375	1683.71435546875	205.0165863037109	-694.8834228515625	1718.830932617188	85.49581909179688	-725.70361328125	1715.75390625	226.1365051269531	-818.1455078125	1686.413696289062	44.63788223266602	-806.572265625	937.93115234375	-52.44667434692383	-841.3712158203125	944.5759887695312	332.9844055175781	-748.7169799804688	971.5980224609375	279.8701171875	-729.2261962890625	961.3613891601562	3.702917814254761	-818.8658447265625	493.7474365234375	9.701645851135254	-802.7160034179688	659.27783203125	-29.27364158630371	-917.1183471679688	33.30788040161133	17.79546356201172	-894.0848999023438	252.0087280273438	4.368612766265869	-708.7003784179688	39.08538436889648	79.53117370605469	-782.176025390625	40.74729537963867	113.7433166503906	-793.3795776367188	35.15633010864258	5.996405601501465	-988.2493286132812	35.43135070800781	71.00551605224609	-835.0515747070312	499.1741027832031	292.2137145996094	-808.1063842773438	789.0635986328125	333.246337890625	-926.068603515625	35.08187103271484	277.0014343261719	-841.0753784179688	357.1767883300781	281.0384521484375	-703.4600830078125	39.70851135253906	254.9418640136719	-762.2105712890625	40.69022750854492	208.506103515625	-794.660400390625	36.68200302124023	309.641845703125	-975.8187866210938	29.4863109588623	216.3226623535156	-727.311767578125	719.4340209960938	-70.95928955078125	nan	nan	nan	
75	0.74	-952.6474609375	1018.536193847656	200.4604644775391	-939.4009399414062	1020.608642578125	67.48983764648438	-941.5414428710938	1103.959594726562	129.6178436279297	-719.0979614257812	1297.724731445312	138.2975769042969	-958.6392211914062	1229.345947265625	128.8621978759766	-920.5758666992188	1504.219482421875	144.2230682373047	-742.2328491210938	1408.187377929688	138.0896606445312	-989.9254760742188	1377.234497070312	226.8369750976562	-949.8547973632812	1450.1455078125	52.57604598999023	-851.7772216796875	1478.355590820312	-26.09718704223633	-857.7064819335938	1351.961791992188	-107.2737579345703	-830.8011474609375	1129.038330078125	-124.0337524414062	-918.61376953125	1119.769409179688	-74.51878356933594	-732.8172607421875	889.0692749023438	-70.90664672851562	-775.125	863.9043579101562	-142.8982696533203	-805.702392578125	1043.159545898438	-128.6956176757812	-764.6376953125	804.9918212890625	-133.9642028808594	-711.273193359375	813.180419921875	-91.51830291748047	-864.55322265625	1467.779418945312	300.5386657714844	-885.1123046875	1402.882568359375	368.0353088378906	-886.62548828125	1111.431030273438	408.9070129394531	-940.393798828125	1094.5771484375	380.6088562011719	-754.2770385742188	890.2344970703125	366.9771118164062	-799.16552734375	869.6514282226562	433.2974853515625	-876.6024780273438	1056.21923828125	417.090087890625	-742.753662109375	717.4649658203125	371.0224914550781	-725.5460205078125	799.51806640625	381.3791198730469	-781.4168090820312	794.8753662109375	429.9496154785156	-860.3868408203125	1683.729370117188	204.3040924072266	-694.1367797851562	1718.670776367188	84.75	-724.93701171875	1715.60546875	225.3842163085938	-817.467041015625	1686.456909179688	43.91104125976562	-806.540771484375	937.85888671875	-53.2334098815918	-841.283447265625	944.6253662109375	332.2312316894531	-748.5736694335938	971.5990600585938	279.14404296875	-729.2142333984375	961.3147583007812	2.973504304885864	-818.5441284179688	493.7337646484375	9.388113975524902	-802.6460571289062	659.2061157226562	-29.84793853759766	-917.1282348632812	33.29873657226562	17.78392219543457	-893.8818969726562	251.9198455810547	4.128736019134521	-708.688232421875	39.07270431518555	79.56595611572266	-782.1793823242188	40.73547744750977	113.7550735473633	-793.3761596679688	35.15816497802734	6.004617691040039	-988.2421264648438	35.40724563598633	70.96417999267578	-834.503662109375	499.2034606933594	291.8007507324219	-807.8489990234375	789.1541748046875	332.5973510742188	-926.0753784179688	35.08099365234375	277.0091247558594	-840.6405029296875	357.1322326660156	280.6990966796875	-703.4694213867188	39.71769714355469	254.9240417480469	-762.2708740234375	40.71445083618164	208.4367218017578	-794.6505126953125	36.69839859008789	309.6174011230469	-975.82373046875	29.47466468811035	216.3227081298828	-726.8048095703125	719.4285888671875	-71.76705169677734	nan	nan	nan	
76	0.75	-952.5293579101562	1018.510070800781	199.6762542724609	-939.2996215820312	1020.523681640625	66.72406005859375	-941.453369140625	1104.054931640625	128.8539428710938	-718.802001953125	1297.666015625	137.4942321777344	-958.3515625	1229.428100585938	128.0564880371094	-920.0709838867188	1504.294799804688	143.3278961181641	-741.8170776367188	1408.128540039062	137.2944488525391	-989.5884399414062	1377.372436523438	225.9347534179688	-949.4113159179688	1450.19775390625	51.65729904174805	-851.2827758789062	1478.338989257812	-26.95217132568359	-857.2633666992188	1351.93408203125	-108.1379547119141	-830.4632568359375	1129.018310546875	-124.9025573730469	-918.33154296875	1119.77978515625	-75.45172882080078	-732.5473022460938	889.0247802734375	-71.65244293212891	-774.7854614257812	863.8938598632812	-143.6903533935547	-805.3290405273438	1043.11669921875	-129.5145568847656	-764.345458984375	804.9359130859375	-134.7375946044922	-710.9086303710938	813.1614379882812	-92.26826477050781	-864.1299438476562	1467.817016601562	299.7070922851562	-884.7941284179688	1402.938110351562	367.1346740722656	-886.7730712890625	1111.53857421875	408.1200866699219	-940.5205688476562	1094.707885742188	379.7621154785156	-754.3601684570312	890.34814453125	366.3603820800781	-799.2992553710938	869.7294921875	432.529052734375	-876.7139892578125	1056.297607421875	416.2495727539062	-742.8392333984375	717.5599365234375	370.2843017578125	-725.5921020507812	799.6119995117188	380.7464294433594	-781.615234375	795.0035400390625	429.2492980957031	-859.6072387695312	1683.741943359375	203.5819854736328	-693.3698120117188	1718.51123046875	83.99200439453125	-724.17724609375	1715.438842773438	224.6241607666016	-816.7650756835938	1686.493286132812	43.16312026977539	-806.5451049804688	937.7916259765625	-54.01626205444336	-841.1638793945312	944.6651000976562	331.4529113769531	-748.4114379882812	971.5870361328125	278.4045715332031	-729.1187744140625	961.2901611328125	2.192508220672607	-818.218994140625	493.7315368652344	9.071501731872559	-802.5126342773438	659.1465454101562	-30.39590644836426	-917.137939453125	33.28683090209961	17.77028846740723	-893.6837768554688	251.8540802001953	3.897021770477295	-708.6796875	39.06301116943359	79.59507751464844	-782.1838989257812	40.71728897094727	113.7670288085938	-793.3740844726562	35.16011428833008	6.014781475067139	-988.2366943359375	35.3882942199707	70.92453002929688	-833.8720092773438	499.2250671386719	291.3658447265625	-807.5545043945312	789.2474975585938	331.9181823730469	-926.0762939453125	35.08499526977539	277.0122680664062	-840.155029296875	357.0754089355469	280.337890625	-703.4702758789062	39.72327423095703	254.9083404541016	-762.3269653320312	40.73476028442383	208.3647155761719	-794.6373901367188	36.71502304077148	309.5884704589844	-975.825927734375	29.47148132324219	216.3211364746094	-726.2874755859375	719.4232788085938	-72.54199981689453	nan	nan	nan	
77	0.76	-952.4024047851562	1018.476379394531	198.8686065673828	-939.1801147460938	1020.430725097656	65.93914794921875	-941.3483276367188	1104.156127929688	128.0582122802734	-718.4617309570312	1297.60986328125	136.6722564697266	-958.0507202148438	1229.517700195312	127.212516784668	-919.5526123046875	1504.3681640625	142.4203643798828	-741.37158203125	1408.074829101562	136.4893951416016	-989.2338256835938	1377.507446289062	225.0032501220703	-948.9478149414062	1450.245727539062	50.71759033203125	-850.7595825195312	1478.312255859375	-27.82900810241699	-856.77001953125	1351.893188476562	-109.0129623413086	-830.10205078125	1128.990356445312	-125.7827377319336	-918.0253295898438	1119.7861328125	-76.41020965576172	-732.2742309570312	888.9837646484375	-72.40447998046875	-774.4071044921875	863.880615234375	-144.4781799316406	-804.9348754882812	1043.063232421875	-130.345947265625	-764.02392578125	804.8634033203125	-135.5066070556641	-710.5442504882812	813.1463012695312	-92.97914886474609	-863.7041015625	1467.850708007812	298.8670959472656	-884.482666015625	1402.97900390625	366.2176513671875	-886.9229736328125	1111.640258789062	407.3061828613281	-940.6380615234375	1094.828857421875	378.8756103515625	-754.4248046875	890.4656982421875	365.7627258300781	-799.4669799804688	869.8201904296875	431.801025390625	-876.8275146484375	1056.376953125	415.3832702636719	-742.8734741210938	717.6646118164062	369.5859375	-725.6743774414062	799.7150268554688	380.2133178710938	-781.8355102539062	795.1646728515625	428.6455078125	-858.805908203125	1683.755493164062	202.8441467285156	-692.5794067382812	1718.349731445312	83.22183227539062	-723.4198608398438	1715.253662109375	223.8558654785156	-816.0355224609375	1686.516357421875	42.38974380493164	-806.5475463867188	937.71923828125	-54.79750061035156	-841.0191650390625	944.6918334960938	330.6561279296875	-748.2359619140625	971.569580078125	277.6470947265625	-728.9465942382812	961.2793579101562	1.368216156959534	-817.8989868164062	493.7317504882812	8.74413013458252	-802.3212280273438	659.0914916992188	-30.92028617858887	-917.1468505859375	33.27260589599609	17.75554084777832	-893.5017700195312	251.8030395507812	3.687053203582764	-708.67724609375	39.05985260009766	79.61521911621094	-782.1903076171875	40.69226455688477	113.7778091430664	-793.3731689453125	35.16286849975586	6.026372909545898	-988.2355346679688	35.37405776977539	70.88816833496094	-833.1721801757812	499.2380981445312	290.9150695800781	-807.2267456054688	789.34228515625	331.2185668945312	-926.069091796875	35.09687805175781	277.0082397460938	-839.62451171875	357.0131225585938	279.9627075195312	-703.4592895507812	39.72298812866211	254.8963012695312	-762.3660888671875	40.74267196655273	208.2991180419922	-794.6203002929688	36.73191452026367	309.5558471679688	-975.8246459960938	29.48097801208496	216.3182678222656	-725.7704467773438	719.4210205078125	-73.27840423583984	nan	nan	nan	
